imperialMarch "v127rt95o3l4gggd+8.a+16gd+8.a+16g2>dddl8.d+<a+16f+4d+a+16g2>g4<gg16>g4f+l16fed+e4<g+8>c+4c8.<ba+aa+4d+8f+4d+8.f+.a+8.&a+32g8.a+>d2g4<g8.g>g4f+8.fed+e4<g+8>c+4c8.<ba+aa+4d+8f+4d+8.a+g4d+8.a+l1g&g";

mario "t105>e16l8eec16eg2c.<g.e.abl16a+a8g.>eg.a8fg8e8cdl8.c-c<gea8b8l16a+a8g.>eg.a8fg8e8cd<b4&b>gf+fd+8e8<g+ab+8a>cd8.gf+fd+8e8>c8cc4.<gf+fd+8e8<g+ab+8a>cl8.dd+dc2&c8l16gf+fd+8e8<g+ab+8a>cd8.gf+fd+8e8>c8cc4.<gf+fd+8e8<g+ab+8a>cl8.dd+dc2l16cc8c8cd8ec8<ag4>cc8c8cde2&ecc8c8cd8ec8<ag4>ee8e8ce8g2l8.c<gea8b8l16a+a8g.>eg.a8fg8e8cdl8.c-c<gea8b8l16a+a8g.>eg.a8fg8e8cdc-8";

AC/DC Highway To Hell "t113r1r1r1r1r2r8o4e8e8e2.c+8c+8d2.c+8c+8d4c+8c+8d4c+4e8e2&e8e8e8e2.c+8c+8d2.c+8c+8d4c+8c+8d4c+4e8e2&e8e8e8e2.c+8c+8d2.c+8c+8d4c+8c+8d4c+4e8e2e8e8e8e2.c+8c+8d2.c+8c+8d4c+8c+8d4c+4e8e2&e8e8e8e2.c+8c+8d2.c+8c+8d4c+8c+8d4c+4.<b4b8b8b8b8b8b8b8b8b8b8b8b8b4>e4e4e4e4e4e4d4c+4e4e4e4e4e4e4d4c+4e4e4e4e4e4e4d4c+4e4e4e4e8<a1&a2.>e8e8e2.c+8c+8d2.c+8c+8d4c+8c+8d4c+4e8e2&e8e8e8e2.c+8c+8d2.c+8c+8d4c+8c+8d4c+4e8e2&e8e8e8e2.c+8c+8d2.c+8c+8d4c+8c+8d4c+4e8e2&e8e8e8e2.c+8c+8d2.c+8c+8d4c+8c+8d8d8c+4.<b4b8b8b8b8b8b8b8b8b8b8b4b4>e4e4e4e4e4e4d4c+2e4e4e4e4e4d4c+2e4e4e4e4e4d4c+4e4e4e4e8<a1&a2a4.a1&a4a4.a4.a4.a4.a4a4>e4e4e4e4e4e4d4c+2e4e4e4e4e4d4c+2e4e4e4e4e4d4c+4e4e4e4e4e4e4d4c+4e4e4e4e4e4<b4>d4c+4e4e4e4e4e8<a4a8>d4c+4e4e4e4e4e8<a4a8>d4c+4e4e4e4e8<a2&a8>d4c+2e4e4e4e4e4d4c+4e4e4e4e4e4e4d4c+4e4e4e4e4e4e4d4c+4e4e4e4e8<a1&a2.>e8e8e16.,o5r2r8e8<e8e2.a8a8a2.a8c+8a4a8a8a4a4>e8e2&e8e8<e8>e2.<a8a8a2.a8a8a4a8c+8a4c+4>e8<b2&b8>e8e8<e2.a8c+8a2.a8a8a4a8c+8a4a4>e8<e2&e8>e8<e8>e2.<a8a8a2.c+8a8a4a8a8a4a4>e8e2&e8e8<e8>e2.<a8a8a2.c+8a8a4a8a8a4a4>e8<e2&e8>e8e8<e2.a8a8a2.c+8c+8a4a8c+8a4a4b8f+4f+8f+8f+8f+8f+8f+8f+8f+8f+8<b8>f+4<b4>>e2e4.e4<<b4b8>a4a4b2>e4.<e4<b8>c+4a4a4>e2e4.<b4.c+4d4a4>e2e4.<a1&a2.>e8e8<b2.a8c+8a2.a8a8a4a8c+8a4c+4>e8e2&e8e8<e8>e2.<a8c+8a2.c+8c+8a4c+8c+8a4c+4>e8<e2&e8>e8e8e2.<a8c+8a2.c+8c+8a4a8c+8a4a4>e8<e2&e8>e8e8e2.<a8c+8a2.c+8c+8d4a8c+8d4c+4b4f+8f+8f+8f+8f+8f+8f+8f+8f+8f+8f+8f+4<b4>b2b4.e4<b8>c+4a4a4b2e4.b4.c+8<b8>d2e2b4.e4.c+4a4c+4b2b4.e1&e2>d4.<a1&a4>c+4.d4.<a4.a4.a4>c+4<e2>e4.e4.<c+4>d4d4<b2>e4.<b4<b8>c+4>d4d4<e2>e4.e4.<c+4>d4d4<b2>e4.<b4<b8>c+4>d4d4e2e4.e4<<a4a8>a4c+2.>e4.<b4<a8b4>a4c+4b2>e4.<b4<a4a8>a4c+4>e2e4.<a2&a8a4c+4a2>e4.e4<<a4>c+8a4c+2.>e4.<b4<a8b4>d2b2b4.>e4.<<b8>c+8a4a2.>e4.<e1&e2.>e8<e8b8"


vivaldi
t133 добавленно мной
t133l16g<ggggggggggg>f<ggggggggggg>d+<ggggggggggg>d<gggggggg1>>d<dddddddddddb+ddddddddddda+dddddddddddadddddddd2>dc<a+agf+edc<a+aggggggggg>>gfd+dc<a+agfd+dccccccccc>a+agfd+dc<a+agfd+d+d+d+d+d+d+d+d+>>dc<a+agf+edc<a+aggggggggg>>dc<a+agf+d+dc<a+agggggggg>d<ggg>d<ggg>d<gggdaa+>cdef+ga4<aa+>cdef+ga4<a+>cdd+f+gaa+4def+gaa+>cd4<def+gaa+>cd4<<aa+>cdef+ga4<a+>cdd+f+gaa+4def+gaa+>cd4<a+gd<a+>a+gd<a+>a+gd<a+>d<a+gd>d<a+gd>d<a+gdgd<a+g>gd<a+g>gd<a+g>gbgbgbgbgbgbgb+gb+gb+gb+gb+gb+g>c+<g>c+<g>c+<g>c+<g>c+<g>c+<a>d<a>d<a>d<a>d<a>d<a>d<a>c+<a>c+<a>c+<a>c+<a>c+<a>c+d<defgab>c+d<ab>c+defgadefgaa+>c+d4<aa>c+c+eeaa<a<d>a>g<a<d>a>f<a<d>a>e<a<d>a>f<a<d>a>g<a<d>a>a<a<d>a>g<a<d>a>f<a<d>a>e4<ddffaa>dd<d<d>db+d<d>da+d<d>dad<d>da+d<d>d>c+<d<d>d>d<d<d>db+d<d>da+d<d>da4>aaggffd+d+ddcc<a+a+aaggffeeddcc<a+a+aag+l8ag+ag+afgd+fdd+c+dc+dc+dc+dc+dcdcddd>dfaa+<dd>dga+a+<ee>d+ga+a<ff>cfaa<dd>dfag<d+d+a+>d+gg<cc>cd+gg<ddb>dgf<ddb>dfl16d+<d+fgg+b>cdd+4<d+fgg+b>cdd+4<d+fgg+b>cdd+4<d+>c<a+>c<d+>c<a+>c<d+>c<a+>c<fb+a+b+fb+a+b+fb+a+b+gb+bb+gb+bb+gb+b>cc<ccccccccccca+cccccccccccg+cccccccccccgcccccccc4>d+cd+cd+cd+cd+cd+cdc-dc-dc-dc-dc-dc-d+cd+cd+cd+cd+cd+cd<a+>d<a+>d<a+>d<a+>d<a+>d<a+>d+<a+>d+<a+>d+<a+>d+<a+>d+<a+>d+<a+>d+ggg+g+a+a+>ccddd+d+<a+gd+>d+<a+gd+>d+<a+gd+gg+g+a+a+>ccddd+d+ffc<af>fc<af>fc<afga+a+>ccddd+d+ffggd<bg>gd<bg>gd<bg>d+<<cccccccccccg+cccg+cccg+ccc<bbbbbbbbbbbb>g<a+a+a+>g<a+a+a+>g<a+a+a+aaaaaaaaaaaa>f<g+g+g+>f<g+g+g+>f<g+g+g+g>ggggggggggg>d+<ggg>d+<ggg>d+<gggf+f+f+f+f+f+f+f+f+f+f+f+>d<fff>d<fff>d<fffeeeeeeeeeeeeb+d+d+d+b+d+d+d+b+d+d+d+ddddf+dddaddda+dddb+ddd>d<ddd>d+<ddd>f+<ddd>g<ddd>a<ddd>a+<ddd>b+<ddd>>d<dc<a+agf+edc<a+aggggggggggggg>>gfd+dc<a+agfd+dccccccccccccc>a+agfd+dc<a+agfd+d+d+d+d+d+d+d+d+>>dc<a+agf+edc<a+agggggggggggg>g<g<g>g>f<g<g>g>d+<g<g>>d+<ggaa+>cdef+gaa+agfd+dc<a+agf+edc<a+ga+ga+ga+ga+ga+g>d+df+egf+aga+ab+a+>dcd+dfegf+aga+a<d+df+egf+aga+ab+a+>dcd+dfegf+aga+a<ddddddddddddgd<a+g>gd<a+g>gd<a+g>ggggggggggggf+f+f+f+f+f+f+f+f+f+f+f+gggga+a+a+a+>ddddgggga+a+a+a+ggggdddd<a+a+a+a+gggg<g1